<svg t="1629226768463" class="icon" viewBox="0 0 1024 1024" version="1.1" xmlns="http://www.w3.org/2000/svg" p-id="7803" width="64" height="64"><path d="M512 96C281.6 96 96 281.6 96 512s185.6 416 416 416 416-185.6 416-416S742.4 96 512 96z m0 64c195.2 0 352 156.8 352 352s-156.8 352-352 352S160 707.2 160 512 316.8 160 512 160z m6.688 129.44c-14.4 2.432-29.056 46.56-29.056 46.56s-38.432-6.4-70.432 25.6c-6.4 6.4-12.8 9.6-22.4 12.8-3.2 3.2-6.4 3.2-12.8 22.4-12.8 28.8 19.2 64 19.2 64-67.2 48-64 112-60.8 128-41.6 35.2-25.6 80-16 92.8 6.4 9.6 12.8 6.4 16 6.4 0 3.2-16 22.4 0 28.8 16 9.6 41.6 12.8 54.4 0 9.6-9.6 12.8-28.8 16-38.4 3.2-3.2 3.2 6.4 16 12.8 0 0-22.4 9.6-12.8 32 3.2 6.4 12.8 12.8 32 12.8 6.4 0 83.2-3.2 102.4-9.6 12.8-3.2 16-9.6 16-9.6 83.2-22.4 99.2-57.6 156.8-70.4 19.2-3.2 19.2-35.2-16-32-25.6 0-48 12.8-67.2 25.6-32 19.2-54.4 22.4-54.4 19.2-3.2-3.2 12.8-41.6-3.2-83.2-16-44.8-44.8-57.6-41.6-60.8 9.6-16 32-41.6 41.6-86.4 3.2-28.8 3.2-76.8-9.6-99.2-3.2-6.4-22.4 6.4-22.4 6.4s-19.2-41.6-25.6-44.8a7.488 7.488 0 0 0-6.112-1.76z" p-id="7804" fill="#ffffff"></path></svg>