<svg xmlns="http://www.w3.org/2000/svg" xmlns:xlink="http://www.w3.org/1999/xlink" width="180" height="180" preserveAspectRatio="xMidYMid meet" version="1.1" viewBox="66.092 33.5 184.5 184.5"><defs><path id="b2JZZcA3fT" d="M67.59 35L247.59 35L247.59 215L67.59 215L67.59 35Z"/><path id="bj0tb0Y8q" d="M237.6 95L187.6 95L187.6 45L237.6 45L237.6 95Z"/><path id="dkDSTzPj3" d="M182.59 95L132.59 95L132.59 45L182.59 45L182.59 95Z"/><path id="a4vNdcNLpF" d="M127.59 95L77.59 95L77.59 45L127.59 45L127.59 95Z"/><path id="h2t4Zj1jSU" d="M237.6 150L187.6 150L187.6 100L237.6 100L237.6 150Z"/><path id="b4t5pngwvT" d="M182.59 150L132.59 150L132.59 100L182.59 100L182.59 150Z"/><path id="b9s1gd5m2" d="M182.59 205L132.59 205L132.59 155L182.59 155L182.59 205Z"/><path id="cmt9WLvz7" d="M237.6 205L187.6 205L187.6 155L237.6 155L237.6 205Z"/><path id="bJUNqgFSg" d="M127.59 205L77.59 205L77.59 155L127.59 155L127.59 205Z"/></defs><g><g><use fill="#fff" fill-opacity="1" opacity="1" xlink:href="#b2JZZcA3fT"/></g><g><use fill="#f9ad00" fill-opacity="1" opacity="1" xlink:href="#bj0tb0Y8q"/></g><g><use fill="#f9ad00" fill-opacity="1" opacity="1" xlink:href="#dkDSTzPj3"/></g><g><use fill="#f9ad00" fill-opacity="1" opacity="1" xlink:href="#a4vNdcNLpF"/></g><g><use fill="#f9ad00" fill-opacity="1" opacity="1" xlink:href="#h2t4Zj1jSU"/></g><g><use fill="#4e4e4e" fill-opacity="1" opacity="1" xlink:href="#b4t5pngwvT"/></g><g><use fill="#4e4e4e" fill-opacity="1" opacity="1" xlink:href="#b9s1gd5m2"/></g><g><use fill="#4e4e4e" fill-opacity="1" opacity="1" xlink:href="#cmt9WLvz7"/></g><g><use fill="#4e4e4e" fill-opacity="1" opacity="1" xlink:href="#bJUNqgFSg"/></g></g></svg>