<svg xmlns="http://www.w3.org/2000/svg" width="64" height="64" class="icon" p-id="6132" t="1629226666980" version="1.1" viewBox="0 0 1151 1024"><path fill="#2c2c2c" d="M927.95469 0H223.989063c-7.999609 0-15.599238 3.999805-19.999023 10.799473L3.999805 305.185098c-5.799717 8.79957-5.199746 20.399004 1.399931 28.398614l551.973049 681.56672c9.599531 11.799424 27.598652 11.799424 37.198183 0l551.973048-681.56672c6.599678-8.1996 7.199648-19.599043 1.399932-28.398614L948.153703 10.799473C943.553928 3.999805 936.154289 0 927.95469 0z m-38.598116 95.995313l126.593819 191.990625h-136.793321l-103.394951-191.990625h113.594453z m-404.180264 0h181.391143l103.394951 191.990625H381.981349l103.194961-191.990625z m-222.589132 0h113.594454l-103.394952 191.990625H135.99336l126.593818-191.990625z m-85.995801 287.985938h102.794981L415.979688 703.965627 176.591377 383.981251z m205.789952 0h387.181095L575.971876 870.557492 382.381329 383.981251zM735.964064 703.965627l136.39334-319.984376h102.794981L735.964064 703.965627z" p-id="6133"/></svg>